<?xml version="1.0" encoding="UTF-8"?>
<svg version="1.1" xmlns="http://www.w3.org/2000/svg" width="48" height="48">
<path d="M0 0 C15.84 0 31.68 0 48 0 C48 15.84 48 31.68 48 48 C32.16 48 16.32 48 0 48 C0 32.16 0 16.32 0 0 Z " fill="#ECF2F5" transform="translate(0,0)"/>
<path d="M0 0 C1.01586535 3.04759605 1.00433442 4.45093253 0.625 7.5625 C0.53476563 8.34753906 0.44453125 9.13257813 0.3515625 9.94140625 C0 12 0 12 -1 14 C-0.34 14.33 0.32 14.66 1 15 C1.556875 16.051875 2.11375 17.10375 2.6875 18.1875 C5.01266367 22.37970959 7.95074323 25.42240859 12 28 C15.26139352 28.95167379 15.26139352 28.95167379 18 29 C18 29.33 18 29.66 18 30 C20.97 30 23.94 30 27 30 C27.33 29.34 27.66 28.68 28 28 C29.27449653 26.91696371 30.56921795 25.85760395 31.875 24.8125 C36.52772697 20.80899074 38.36666646 17.40416778 39.5 11.3125 C40.08822272 8.5919699 41.21210046 7.09883859 43 5 C44 6 44 6 44.11352539 8.59204102 C44.10828857 9.71795654 44.10305176 10.84387207 44.09765625 12.00390625 C44.09515869 13.09775635 44.09266113 14.19160645 44.09008789 15.31860352 C44.08098389 16.71908936 44.07187988 18.1195752 44.0625 19.5625 C44.041875 23.996875 44.02125 28.43125 44 33 C28.16 33 12.32 33 -4 33 C-4.0825 28.854375 -4.165 24.70875 -4.25 20.4375 C-4.28641602 19.14384521 -4.32283203 17.85019043 -4.36035156 16.51733398 C-4.42523846 9.77380637 -4.07670469 5.46503129 0 0 Z " fill="#BBD5E6" transform="translate(4,15)"/>
<path d="M0 0 C15.84 0 31.68 0 48 0 C48 6.93 48 13.86 48 21 C44.97399468 19.48699734 44.41257985 17.00173218 43 14 C41.79183032 11.44152304 41.02338633 10.02338633 39 8 C36.42938689 7.35232207 36.42938689 7.35232207 34 7 C34 6.01 34 5.02 34 4 C27.18266708 2.34731323 21.11607091 2.27546964 15 6 C9.22124212 10.39924237 3.99198992 15.26802267 1 22 C0.67 22 0.34 22 0 22 C0 14.74 0 7.48 0 0 Z " fill="#F2F5F6" transform="translate(0,0)"/>
<path d="M0 0 C3.63 0 7.26 0 11 0 C11.33 0.99 11.66 1.98 12 3 C14.01508358 3.73323796 14.01508358 3.73323796 16 4 C17.71084699 9.51272919 18.4606443 12.53190155 16 18 C15.01 18 14.02 18 13 18 C13.33 19.98 13.66 21.96 14 24 C12.68 24 11.36 24 10 24 C10 23.34 10 22.68 10 22 C9.34 22 8.68 22 8 22 C7.67 22.66 7.34 23.32 7 24 C6.34 23.67 5.68 23.34 5 23 C5.66 21.35 6.32 19.7 7 18 C4.69 18 2.38 18 0 18 C0 17.34 0 16.68 0 16 C0.66 15.67 1.32 15.34 2 15 C1.34 14.67 0.68 14.34 0 14 C0 9.38 0 4.76 0 0 Z " fill="#1593D5" transform="translate(16,11)"/>
<path d="M0 0 C0.99 0 1.98 0 3 0 C3 0.66 3 1.32 3 2 C3.66 2.33 4.32 2.66 5 3 C5 2.34 5 1.68 5 1 C6.32 1.66 7.64 2.32 9 3 C9 2.01 9 1.02 9 0 C9.99 0 10.98 0 12 0 C12 3.63 12 7.26 12 11 C7.38 11 2.76 11 -2 11 C-1.67 10.34 -1.34 9.68 -1 9 C-1.66 8.67 -2.32 8.34 -3 8 C-3 6.35 -3 4.7 -3 3 C-2.34 3 -1.68 3 -1 3 C-0.67 2.01 -0.34 1.02 0 0 Z " fill="#4B7EA6" transform="translate(19,17)"/>
<path d="M0 0 C0.33 0 0.66 0 1 0 C2.71084699 5.51272919 3.4606443 8.53190155 1 14 C0.01 14 -0.98 14 -2 14 C-1.67 15.98 -1.34 17.96 -1 20 C-2.32 20 -3.64 20 -5 20 C-5 19.34 -5 18.68 -5 18 C-5.66 18 -6.32 18 -7 18 C-7.33 18.66 -7.66 19.32 -8 20 C-8.66 19.67 -9.32 19.34 -10 19 C-9.34 17.35 -8.68 15.7 -8 14 C-10.31 14 -12.62 14 -15 14 C-14.67 13.34 -14.34 12.68 -14 12 C-7.07 12.495 -7.07 12.495 0 13 C-0.33 11.68 -0.66 10.36 -1 9 C-0.87890625 6.640625 -0.87890625 6.640625 -0.5625 4.25 C-0.40974609 3.05117188 -0.40974609 3.05117188 -0.25390625 1.828125 C-0.17011719 1.22484375 -0.08632813 0.6215625 0 0 Z " fill="#B9C7D4" transform="translate(31,15)"/>
<path d="M0 0 C1.9453125 0.2421875 1.9453125 0.2421875 4.125 0.875 C4.84945313 1.07867187 5.57390625 1.28234375 6.3203125 1.4921875 C6.87460937 1.65976562 7.42890625 1.82734375 8 2 C8 2.33 8 2.66 8 3 C10.97 3 13.94 3 17 3 C17 3.99 17 4.98 17 6 C12.38 6 7.76 6 3 6 C3 5.34 3 4.68 3 4 C0.525 3.01 0.525 3.01 -2 2 C-1.34 1.34 -0.68 0.68 0 0 Z " fill="#AACBE0" transform="translate(14,42)"/>
<path d="M0 0 C0.99 0 1.98 0 3 0 C3 3.63 3 7.26 3 11 C-1.62 11 -6.24 11 -11 11 C-11 10.67 -11 10.34 -11 10 C-9.02 9.67 -7.04 9.34 -5 9 C-5 8.34 -5 7.68 -5 7 C-3.35 6.67 -1.7 6.34 0 6 C0 4.02 0 2.04 0 0 Z " fill="#0E4374" transform="translate(28,17)"/>
<path d="M0 0 C3.85452676 -0.22025867 6.50889056 0.35142054 10 2 C11 3 11 3 11.0625 5.5625 C11.041875 6.366875 11.02125 7.17125 11 8 C9.35 8.33 7.7 8.66 6 9 C6.99 8.67 7.98 8.34 9 8 C8.65213292 6.02463255 8.65213292 6.02463255 8 4 C7.34 3.67 6.68 3.34 6 3 C6 3.66 6 4.32 6 5 C4.68 4.67 3.36 4.34 2 4 C2.66 4 3.32 4 4 4 C4 3.34 4 2.68 4 2 C3.01 2 2.02 2 1 2 C1 3.65 1 5.3 1 7 C0.67 7 0.34 7 0 7 C0 4.69 0 2.38 0 0 Z " fill="#DEEDF5" transform="translate(18,15)"/>
<path d="M0 0 C0.66 0 1.32 0 2 0 C2 0.99 2 1.98 2 3 C1.34 3 0.68 3 0 3 C-0.226875 3.7425 -0.45375 4.485 -0.6875 5.25 C-2.27039331 8.56653836 -3.91302348 10.04240513 -7 12 C-7.99 11.67 -8.98 11.34 -10 11 C-9.278125 10.29875 -8.55625 9.5975 -7.8125 8.875 C-5.83067874 6.91006927 -4.05292847 4.86821544 -2.3125 2.6875 C-1.1678125 1.3571875 -1.1678125 1.3571875 0 0 Z " fill="#BDC9D1" transform="translate(42,33)"/>
<path d="M0 0 C1.00685307 3.0205592 1.02876261 4.47076266 0.6875 7.5625 C0.60886719 8.34753906 0.53023438 9.13257813 0.44921875 9.94140625 C0 12 0 12 -2 14 C-2.66 14 -3.32 14 -4 14 C-4.49940808 7.88225104 -3.24900602 4.97504047 0 0 Z " fill="#D5DCE0" transform="translate(4,15)"/>
<path d="M0 0 C0.33 0 0.66 0 1 0 C2.94028872 6.25204144 3.23942475 7.28172575 1 14 C-4.28 14 -9.56 14 -15 14 C-14.67 13.34 -14.34 12.68 -14 12 C-7.07 12.495 -7.07 12.495 0 13 C-0.33 11.68 -0.66 10.36 -1 9 C-0.87890625 6.640625 -0.87890625 6.640625 -0.5625 4.25 C-0.40974609 3.05117188 -0.40974609 3.05117188 -0.25390625 1.828125 C-0.17011719 1.22484375 -0.08632813 0.6215625 0 0 Z " fill="#7BA3C1" transform="translate(31,15)"/>
<path d="M0 0 C0.66 0.33 1.32 0.66 2 1 C2.36666667 8.33333333 2.36666667 8.33333333 0.625 11.5 C-1 13 -1 13 -3 13 C-2.88490339 11.58249437 -2.75746342 10.16598831 -2.625 8.75 C-2.55539063 7.96109375 -2.48578125 7.1721875 -2.4140625 6.359375 C-1.98492887 3.914123 -1.21399362 2.15163097 0 0 Z " fill="#D0DAE1" transform="translate(46,20)"/>
<path d="M0 0 C1.32 0.66 2.64 1.32 4 2 C3.67 2.99 3.34 3.98 3 5 C0.9375 5.6875 0.9375 5.6875 -1 6 C-0.67 4.02 -0.34 2.04 0 0 Z " fill="#2B6A9B" transform="translate(24,18)"/>
<path d="M0 0 C1.32 0.66 2.64 1.32 4 2 C4 3.65 4 5.3 4 7 C2.35 7.33 0.7 7.66 -1 8 C-0.01 7.67 0.98 7.34 2 7 C1.42415568 4.61435923 0.77772405 2.33317216 0 0 Z " fill="#CFE0EB" transform="translate(25,16)"/>
<path d="M0 0 C1.08667969 0.29197266 1.08667969 0.29197266 2.1953125 0.58984375 C2.74960937 0.74582031 3.30390625 0.90179688 3.875 1.0625 C3.215 1.7225 2.555 2.3825 1.875 3.0625 C-3.57954545 2.60795455 -3.57954545 2.60795455 -6.125 0.0625 C-3.57797384 -1.21101308 -2.6967055 -0.73941925 0 0 Z " fill="#BAC6CE" transform="translate(18.125,42.9375)"/>
<path d="M0 0 C0.99 0 1.98 0 3 0 C3 2.31 3 4.62 3 7 C2.01 7 1.02 7 0 7 C0 4.69 0 2.38 0 0 Z " fill="#1E6599" transform="translate(28,17)"/>
</svg>
